<svg xmlns="http://www.w3.org/2000/svg" version="1.1" xmlns:xlink="http://www.w3.org/1999/xlink" xmlns:svgjs="http://svgjs.com/svgjs" width="1000" height="1000"><style>
    #light-icon {
      display: inline;
    }
    #dark-icon {
      display: none;
    }

    @media (prefers-color-scheme: dark) {
      #light-icon {
        display: none;
      }
      #dark-icon {
        display: inline;
      }
    }
  </style><g id="light-icon"><svg xmlns="http://www.w3.org/2000/svg" version="1.1" xmlns:xlink="http://www.w3.org/1999/xlink" xmlns:svgjs="http://svgjs.com/svgjs" width="1000" height="1000"><rect width="1000" height="1000" rx="200" ry="200" fill="#ffffff"></rect><g transform="matrix(1.6077493518760426,0,0,1.6077493518760426,99.99998256578394,227.1408186536222)"><svg xmlns="http://www.w3.org/2000/svg" version="1.1" xmlns:xlink="http://www.w3.org/1999/xlink" xmlns:svgjs="http://svgjs.com/svgjs" width="497.59" height="339.43"><svg id="Layer_1" data-name="Layer 1" xmlns="http://www.w3.org/2000/svg" viewBox="0 0 497.59 339.43">
  <path d="m213.25,172.46c-14.22-14.73-31.41-26.38-51.56-34.94-11.58-5.04-20.15-8.81-25.69-11.33-5.54-2.53-11.97-5.87-19.27-10.02-7.31-4.15-12.47-8.05-15.5-11.71-3.02-3.65-4.52-7.61-4.52-11.9,0-8.56,3.21-15.36,9.62-20.39,6.43-5.04,15.57-7.56,27.4-7.56,9.57,0,19.9,2.01,30.98,6.04,11.08,4.03,18.63,7.24,22.67,9.64,4.02,2.39,7.17,4.35,9.43,5.86l28.71-56.67-11.33-7.56c-7.81-4.79-19.77-9.64-35.9-14.54-16.11-4.92-32.6-7.38-49.48-7.38-8.97,0-17.62,1.02-25.92,3.08.01.65.02,1.29.02,1.94,0,.18,0,.35,0,.53,0,.23.01.46.01.68,0,48.48-32.87,88.54-75.48,94.8,1.1,13.93,6.18,27.04,15.25,39.33,10.33,13.97,24.94,25.62,43.83,34.93,4.53,2.27,11.51,5.61,20.96,10.02,9.44,4.41,16.24,7.68,20.4,9.82,4.15,2.14,8.93,5.03,14.35,8.68,5.42,3.66,9.19,7.31,11.33,10.96,2.14,3.66,3.21,7.62,3.21,11.9,0,20.4-14.99,30.6-44.96,30.6-10.32,0-22.22-3.27-35.68-9.81-13.48-6.55-22.86-11.78-28.15-15.69-5.29-3.9-9.45-7.11-12.46-9.64L0,281.81l4.92,4.17c3.27,2.77,8.44,6.17,15.48,10.21,7.05,4.03,14.98,8.12,23.79,12.27,8.82,4.16,19.77,7.61,32.87,10.38,13.1,2.77,26.45,4.16,40.05,4.16,15.87,0,30.6-1.83,44.2-5.48,13.6-3.65,26-9.25,37.21-16.81,11.21-7.55,20.02-18,26.44-31.35,6.43-13.35,9.65-28.96,9.65-46.84s-7.12-35.32-21.36-50.06Z"></path>
  <g>
    <path d="m372.18,153.37l96.24,108.78c-1.59-.14-3.19-.23-4.81-.23-26.75,0-48.95,19.38-53.38,44.87l-105.68-121.69v132.23h-71.02V5.67h71.02v127.31L411.47,5.67h86.12l-125.41,147.7Z"></path>
    <path d="m485.49,316.33c.01.07.01.14.01.21,0,12.64-10.25,22.89-22.89,22.89s-22.89-10.25-22.89-22.89c0-.07,0-.14.01-.21-.01-.07-.01-.14-.01-.21,0-12.64,10.25-22.89,22.89-22.89s22.89,10.25,22.89,22.89c0,.07,0,.14-.01.21Z"></path>
  </g>
</svg></svg></g></svg></g><g id="dark-icon"><svg xmlns="http://www.w3.org/2000/svg" version="1.1" xmlns:xlink="http://www.w3.org/1999/xlink" xmlns:svgjs="http://svgjs.com/svgjs" width="1000" height="1000"><rect width="1000" height="1000" rx="200" ry="200" fill="#000000"></rect><g transform="matrix(1.6077493518760426,0,0,1.6077493518760426,99.99998256578394,227.1408186536222)"><svg xmlns="http://www.w3.org/2000/svg" version="1.1" xmlns:xlink="http://www.w3.org/1999/xlink" xmlns:svgjs="http://svgjs.com/svgjs" width="497.59" height="339.43"><svg id="Layer_1" data-name="Layer 1" xmlns="http://www.w3.org/2000/svg" viewBox="0 0 497.59 339.43">
  <defs>
    <style>
      .cls-1 {
        fill: #fff;
      }
    </style>
  </defs>
  <path class="cls-1" d="m213.25,172.46c-14.22-14.73-31.41-26.38-51.56-34.94-11.58-5.04-20.15-8.81-25.69-11.33-5.54-2.53-11.97-5.87-19.27-10.02-7.31-4.15-12.47-8.05-15.5-11.71-3.02-3.65-4.52-7.61-4.52-11.9,0-8.56,3.21-15.36,9.62-20.39,6.43-5.04,15.57-7.56,27.4-7.56,9.57,0,19.9,2.01,30.98,6.04,11.08,4.03,18.63,7.24,22.67,9.64,4.02,2.39,7.17,4.35,9.43,5.86l28.71-56.67-11.33-7.56c-7.81-4.79-19.77-9.64-35.9-14.54-16.11-4.92-32.6-7.38-49.48-7.38-8.97,0-17.62,1.02-25.92,3.08.01.65.02,1.29.02,1.94,0,.18,0,.35,0,.53,0,.23.01.46.01.68,0,48.48-32.87,88.54-75.48,94.8,1.1,13.93,6.18,27.04,15.25,39.33,10.33,13.97,24.94,25.62,43.83,34.93,4.53,2.27,11.51,5.61,20.96,10.02,9.44,4.41,16.24,7.68,20.4,9.82,4.15,2.14,8.93,5.03,14.35,8.68,5.42,3.66,9.19,7.31,11.33,10.96,2.14,3.66,3.21,7.62,3.21,11.9,0,20.4-14.99,30.6-44.96,30.6-10.32,0-22.22-3.27-35.68-9.81-13.48-6.55-22.86-11.78-28.15-15.69-5.29-3.9-9.45-7.11-12.46-9.64L0,281.81l4.92,4.17c3.27,2.77,8.44,6.17,15.48,10.21,7.05,4.03,14.98,8.12,23.79,12.27,8.82,4.16,19.77,7.61,32.87,10.38,13.1,2.77,26.45,4.16,40.05,4.16,15.87,0,30.6-1.83,44.2-5.48,13.6-3.65,26-9.25,37.21-16.81,11.21-7.55,20.02-18,26.44-31.35,6.43-13.35,9.65-28.96,9.65-46.84s-7.12-35.32-21.36-50.06Z"></path>
  <g>
    <path class="cls-1" d="m372.18,153.37l96.24,108.78c-1.59-.14-3.19-.23-4.81-.23-26.75,0-48.95,19.38-53.38,44.87l-105.68-121.69v132.23h-71.02V5.67h71.02v127.31L411.47,5.67h86.12l-125.41,147.7Z"></path>
    <path class="cls-1" d="m485.49,316.33c.01.07.01.14.01.21,0,12.64-10.25,22.89-22.89,22.89s-22.89-10.25-22.89-22.89c0-.07,0-.14.01-.21-.01-.07-.01-.14-.01-.21,0-12.64,10.25-22.89,22.89-22.89s22.89,10.25,22.89,22.89c0,.07,0,.14-.01.21Z"></path>
  </g>
</svg></svg></g></svg></g></svg>